<?xml version="1.0" encoding="UTF-8"?>
<svg width="100" height="120" viewBox="0 0 100 120" xmlns="http://www.w3.org/2000/svg">
  <!-- Sun rays -->
  <g stroke="#000" stroke-width="1" fill="none">
    <!-- Top rays -->
    <path d="M50 5 L52 15 M50 5 L48 15"/>
    <path d="M45 7 L46 17 M55 7 L54 17"/>
    <path d="M40 10 L42 19 M60 10 L58 19"/>
    <path d="M36 14 L38 22 M64 14 L62 22"/>
    <path d="M33 18 L36 25 M67 18 L64 25"/>
    <path d="M31 23 L35 29 M69 23 L65 29"/>
    <path d="M30 28 L35 33 M70 28 L65 33"/>
  </g>
  
  <!-- Sun face -->
  <circle cx="50" cy="20" r="8" fill="#000" stroke="#000" stroke-width="1"/>
  <!-- Sun eyes -->
  <circle cx="47" cy="18" r="1" fill="#fff"/>
  <circle cx="53" cy="18" r="1" fill="#fff"/>
  <!-- Sun mouth -->
  <path d="M46 22 Q50 24 54 22" stroke="#fff" stroke-width="0.5" fill="none"/>
  
  <!-- Laurel wreath left -->
  <g fill="#000" stroke="#000" stroke-width="0.5">
    <path d="M25 35 Q20 40 22 45 Q25 50 20 55 Q18 60 23 65 Q28 70 25 75 Q22 80 27 85 Q32 88 30 92"/>
    <!-- Leaves -->
    <ellipse cx="22" cy="38" rx="2" ry="4" transform="rotate(-30 22 38)"/>
    <ellipse cx="19" cy="43" rx="2" ry="4" transform="rotate(-45 19 43)"/>
    <ellipse cx="18" cy="48" rx="2" ry="4" transform="rotate(-60 18 48)"/>
    <ellipse cx="19" cy="53" rx="2" ry="4" transform="rotate(-75 19 53)"/>
    <ellipse cx="21" cy="58" rx="2" ry="4" transform="rotate(-90 21 58)"/>
    <ellipse cx="24" cy="63" rx="2" ry="4" transform="rotate(-105 24 63)"/>
    <ellipse cx="27" cy="68" rx="2" ry="4" transform="rotate(-120 27 68)"/>
    <ellipse cx="30" cy="73" rx="2" ry="4" transform="rotate(-135 30 73)"/>
  </g>
  
  <!-- Laurel wreath right -->
  <g fill="#000" stroke="#000" stroke-width="0.5">
    <path d="M75 35 Q80 40 78 45 Q75 50 80 55 Q82 60 77 65 Q72 70 75 75 Q78 80 73 85 Q68 88 70 92"/>
    <!-- Leaves -->
    <ellipse cx="78" cy="38" rx="2" ry="4" transform="rotate(30 78 38)"/>
    <ellipse cx="81" cy="43" rx="2" ry="4" transform="rotate(45 81 43)"/>
    <ellipse cx="82" cy="48" rx="2" ry="4" transform="rotate(60 82 48)"/>
    <ellipse cx="81" cy="53" rx="2" ry="4" transform="rotate(75 81 53)"/>
    <ellipse cx="79" cy="58" rx="2" ry="4" transform="rotate(90 79 58)"/>
    <ellipse cx="76" cy="63" rx="2" ry="4" transform="rotate(105 76 63)"/>
    <ellipse cx="73" cy="68" rx="2" ry="4" transform="rotate(120 73 68)"/>
    <ellipse cx="70" cy="73" rx="2" ry="4" transform="rotate(135 70 73)"/>
  </g>
  
  <!-- Central shield oval -->
  <ellipse cx="50" cy="55" rx="18" ry="25" fill="none" stroke="#000" stroke-width="2"/>
  
  <!-- Sky section -->
  <path d="M32 35 Q50 30 68 35 L68 50 Q50 45 32 50 Z" fill="#fff" stroke="#000" stroke-width="1"/>
  
  <!-- Handshake in center -->
  <g fill="#000" stroke="#000" stroke-width="0.5">
    <!-- Left arm -->
    <rect x="35" y="52" width="8" height="3" rx="1"/>
    <!-- Right arm -->
    <rect x="57" y="52" width="8" height="3" rx="1"/>
    <!-- Hands -->
    <ellipse cx="45" cy="53" rx="3" ry="2"/>
    <ellipse cx="55" cy="53" rx="3" ry="2"/>
    <!-- Fingers interlocked -->
    <rect x="47" y="52" width="6" height="2"/>
  </g>
  
  <!-- Phrygian cap (liberty cap) -->
  <g fill="#000" stroke="#000" stroke-width="1">
    <path d="M45 40 Q50 35 55 40 Q58 45 55 50 Q50 48 45 50 Q42 45 45 40"/>
    <!-- Cap tip -->
    <circle cx="52" cy="38" r="1"/>
  </g>
  
  <!-- Bottom ribbon -->
  <g fill="none" stroke="#000" stroke-width="1">
    <path d="M30 92 Q50 95 70 92"/>
    <path d="M32 94 Q50 97 68 94"/>
  </g>
  
  <!-- Ribbon text area (simplified) -->
  <rect x="35" y="96" width="30" height="8" fill="none" stroke="#000" stroke-width="0.5"/>
</svg> 